<?xml version="1.0" encoding="UTF-8"?>
<svg version="1.1" xmlns="http://www.w3.org/2000/svg" width="87" height="126">
    <path
        d="M0 0 C26.4 0 52.8 0 80 0 C80 8.91 80 17.82 80 27 C53.6 27 27.2 27 0 27 C0 18.09 0 9.18 0 0 Z "
        fill="#EB2228" transform="translate(7,0)" />
    <path
        d="M0 0 C26.4 0 52.8 0 80 0 C80 26.73 80 53.46 80 81 C75.38 81 70.76 81 66 81 C66 84.3 66 87.6 66 91 C65.01 91 64.02 91 63 91 C62.875 84.375 62.875 84.375 64 81 C62.91074219 81.0721875 61.82148437 81.144375 60.69921875 81.21875 C40.15430466 82.42059534 19.57050355 82.08377128 -1 82 C-1 69.46 -1 56.92 -1 44 C-2.98 44.66 -4.96 45.32 -7 46 C-6.3125 44.125 -6.3125 44.125 -5 42 C-3.35 41.34 -1.7 40.68 0 40 C0 26.8 0 13.6 0 0 Z M2 2 C2 14.21 2 26.42 2 39 C5.96 38.01 9.92 37.02 14 36 C21.04554554 35.57039356 27.15376516 36.42364004 34 38 C35.65 38.33 37.3 38.66 39 39 C39 26.79 39 14.58 39 2 C26.79 2 14.58 2 2 2 Z M41 2 C41 14.54 41 27.08 41 40 C53.54 40 66.08 40 79 40 C79 27.46 79 14.92 79 2 C66.46 2 53.92 2 41 2 Z M8 40 C15.59 40 23.18 40 31 40 C26.63056007 37.81528003 24.31866362 37.73102888 19.5 37.75 C17.53546875 37.74226563 17.53546875 37.74226563 15.53125 37.734375 C11.78463864 37.79196123 11.78463864 37.79196123 8 40 Z M2 42 C2 54.21 2 66.42 2 79 C14.21 79 26.42 79 39 79 C39 66.79 39 54.58 39 42 C26.79 42 14.58 42 2 42 Z M45 42 C48.67080487 45.67490127 48.67080487 45.67490127 52.4375 49.25 C60.5475509 57.95346926 65.1043295 68.13236582 66 80 C70.29 80 74.58 80 79 80 C79 67.46 79 54.92 79 42 C67.78 42 56.56 42 45 42 Z M42 44 C42 55.88 42 67.76 42 80 C48.93 80 55.86 80 63 80 C63 67.25800256 58.88244408 59.47068849 50.5 50.25 C47.57309211 47.50695145 47.57309211 47.50695145 42 44 Z "
        fill="#000000" transform="translate(7,35)" />
    <path
        d="M0 0 C0.66 0 1.32 0 2 0 C2 12.21 2 24.42 2 37 C14.21 37 26.42 37 39 37 C39 24.79 39 12.58 39 0 C39.99 0.33 40.98 0.66 42 1 C42 13.21 42 25.42 42 38 C49.26 38 56.52 38 64 38 C64 38.33 64 38.66 64 39 C42.35841286 40.43423536 20.6762341 40.09560016 -1 40 C-1.02464775 34.46411467 -1.04283496 28.928261 -1.05493164 23.39233398 C-1.05997244 21.5075627 -1.06680498 19.62279535 -1.07543945 17.73803711 C-1.08751617 15.03498364 -1.09323068 12.33198169 -1.09765625 9.62890625 C-1.10281754 8.78099014 -1.10797882 7.93307404 -1.11329651 7.0594635 C-1.11349195 5.03928932 -1.06206211 3.01922066 -1 1 C-0.67 0.67 -0.34 0.34 0 0 Z "
        fill="#000000" transform="translate(7,77)" />
    <path
        d="M0 0 C0.804375 0.53625 1.60875 1.0725 2.4375 1.625 C10.04146385 8.67257625 16.3202998 18.96278677 17.20605469 29.43652344 C17.41446194 34.96860114 17.26266672 40.47232477 17 46 C16.01 46 15.02 46 14 46 C14.02320312 45.33355469 14.04640625 44.66710937 14.0703125 43.98046875 C14.33206437 30.61242703 11.67602695 20.0023053 4 9 C3.505 7.88625 3.505 7.88625 3 6.75 C1.67424554 4.42992969 0.42745938 4.11531918 -2 3 C-3.01175293 2.16533203 -4.02350586 1.33066406 -5.06591797 0.47070312 C-9.38092238 -2.63190733 -13.07022141 -2.69707658 -18.2578125 -2.59375 C-19.1238913 -2.59379028 -19.98997009 -2.59383057 -20.8822937 -2.59387207 C-22.7026907 -2.58853733 -24.52308872 -2.57104265 -26.34326172 -2.54199219 C-29.12408961 -2.50001374 -31.90250122 -2.50093954 -34.68359375 -2.5078125 C-36.4583501 -2.49732271 -38.23309403 -2.48438574 -40.0078125 -2.46875 C-41.24859055 -2.46844788 -41.24859055 -2.46844788 -42.51443481 -2.46813965 C-47.23853495 -2.37150352 -50.04308833 -1.82087999 -54 1 C-54.66 1 -55.32 1 -56 1 C-54.15698164 -3.73343513 -51.13714271 -4.83248367 -46.71484375 -6.89453125 C-30.82757834 -13.36373429 -13.63277832 -9.91474787 0 0 Z M-41 -5 C-33.41 -5 -25.82 -5 -18 -5 C-22.36943993 -7.18471997 -24.68133638 -7.26897112 -29.5 -7.25 C-31.46453125 -7.25773437 -31.46453125 -7.25773437 -33.46875 -7.265625 C-37.21536136 -7.20803877 -37.21536136 -7.20803877 -41 -5 Z "
        fill="#A6181D" transform="translate(56,80)" />
    <path
        d="M0 0 C0 0.33 0 0.66 0 1 C-6.53923541 1.12575453 -6.53923541 1.12575453 -8.7890625 0.51171875 C-20.98134699 -2.31017042 -32.57992636 0.70453884 -43 7 C-43.66 7 -44.32 7 -45 7 C-43.15698164 2.26656487 -40.13714271 1.16751633 -35.71484375 -0.89453125 C-24.60017299 -5.42036121 -10.74398814 -5.83805748 0 0 Z "
        fill="#E82228" transform="translate(45,74)" />
</svg>