<?xml version="1.0" encoding="UTF-8"?>
<svg version="1.1" xmlns="http://www.w3.org/2000/svg" width="350" height="502">
<path d="M0 0 C105.93 0 211.86 0 321 0 C321 35.31 321 70.62 321 107 C215.07 107 109.14 107 0 107 C0 71.69 0 36.38 0 0 Z " fill="#EA2229" transform="translate(29,0)"/>
<path d="M0 0 C105.93 0 211.86 0 321 0 C321 105.93 321 211.86 321 321 C301.86 321 282.72 321 263 321 C263 327.27 263 333.54 263 340 C262.59980012 343.66611673 262.18730056 347.09929571 261.5 350.6875 C261.35691406 351.50798828 261.21382813 352.32847656 261.06640625 353.17382812 C260.72524456 355.11844975 260.36502539 357.05971625 260 359 C257.36 359 254.72 359 252 359 C252.95718874 346.32984379 253.98672419 333.66594758 255 321 C225.3 321 195.6 321 165 321 C165 321.66 165 322.32 165 323 C109.89 323 54.78 323 -2 323 C-2.33 271.85 -2.66 220.7 -3 168 C-14.12659301 174.32523751 -14.12659301 174.32523751 -25 181 C-26.98 178.525 -26.98 178.525 -29 176 C-27.67315546 172.88842431 -26.50705997 171.35146244 -23.62109375 169.59765625 C-22.95094238 169.18435059 -22.28079102 168.77104492 -21.59033203 168.34521484 C-20.87989746 167.92191895 -20.16946289 167.49862305 -19.4375 167.0625 C-18.71675293 166.62373535 -17.99600586 166.1849707 -17.25341797 165.73291016 C-2.83260421 157 -2.83260421 157 0 157 C0 105.19 0 53.38 0 0 Z M5 5 C5 54.17 5 103.34 5 154 C10.51720271 152.34483919 15.86554019 150.72428606 21.26391602 148.80541992 C67.334972 132.59237223 114.62790532 139.25116213 159 157 C159 106.84 159 56.68 159 5 C108.18 5 57.36 5 5 5 Z M163 5 C163 55.16 163 105.32 163 157 C165.74753238 158.37376619 167.9346009 158.12278863 171.01101685 158.12025452 C172.92955821 158.12232076 172.92955821 158.12232076 174.88685799 158.12442875 C176.31796414 158.12088169 177.74907007 158.1172438 179.18017578 158.11352539 C180.70229019 158.1132192 182.22440474 158.1133523 183.74651909 158.11389065 C187.83213863 158.11411692 191.91772903 158.10831029 196.00334167 158.10128021 C199.83352757 158.09559609 203.66370629 158.09531768 207.49389648 158.09460449 C218.7042682 158.0893518 229.91463447 158.07539072 241.125 158.0625 C266.16375 158.041875 291.2025 158.02125 317 158 C317 107.51 317 57.02 317 5 C266.18 5 215.36 5 163 5 Z M22 156 C22 156.33 22 156.66 22 157 C59.62 157 97.24 157 136 157 C106.44649466 137.29766311 53.2460446 145.51301942 22 156 Z M171 163 C174.35870117 165.68696094 177.19919926 167.79228051 180.8125 169.9375 C207.75251765 186.96937693 228.7631402 211.66565249 243 240 C243.57105469 241.12664062 244.14210938 242.25328125 244.73046875 243.4140625 C256.10984271 266.99189132 259.98270951 290.85014912 263 317 C280.82 317 298.64 317 317 317 C317 266.18 317 215.36 317 163 C268.82 163 220.64 163 171 163 Z M7 165 C7 214.5 7 264 7 315 C56.5 315 106 315 157 315 C157 265.5 157 216 157 165 C107.5 165 58 165 7 165 Z M165 170 C165 218.51 165 267.02 165 317 C194.7 317 224.4 317 255 317 C253.5145247 291.74691987 248.86051216 269.75805239 238 247 C237.4946875 245.92105469 236.989375 244.84210938 236.46875 243.73046875 C231.51323213 233.46358465 225.36278271 224.32115713 218.5 215.25 C217.96624756 214.54077393 217.43249512 213.83154785 216.88256836 213.10083008 C213.24324918 208.36178066 209.3069851 204.13568456 205 200 C200 195 200 195 198.53881836 193.45751953 C194.08659769 188.83326766 189.29971198 185.06977571 184.0625 181.375 C182.92264648 180.55515625 182.92264648 180.55515625 181.75976562 179.71875 C173.97847098 173.26205514 173.97847098 173.26205514 165 170 Z " fill="#000000" transform="translate(29,143)"/>
<path d="M0 0 C1.50734207 -0.0129007 1.50734207 -0.0129007 3.0451355 -0.02606201 C4.69783699 -0.03245193 4.69783699 -0.03245193 6.38392639 -0.03897095 C7.545271 -0.04714844 8.7066156 -0.05532593 9.90315247 -0.06375122 C13.75749699 -0.08861868 17.61180454 -0.10512849 21.46620178 -0.11953735 C23.44201831 -0.12752287 23.44201831 -0.12752287 25.45775032 -0.13566971 C30.9986003 -0.15730275 36.53944742 -0.17603337 42.08032894 -0.1872921 C49.99776466 -0.20348904 57.91470632 -0.23655707 65.83195585 -0.29369295 C71.41007687 -0.33256064 76.98806676 -0.35194504 82.56631953 -0.35721266 C85.89141331 -0.36084595 89.21556399 -0.37519354 92.54058647 -0.4053154 C96.26217976 -0.43709495 99.98254436 -0.43698304 103.70423889 -0.42959595 C105.32961327 -0.45420395 105.32961327 -0.45420395 106.98782349 -0.47930908 C116.60752739 -0.40163907 124.4248619 2.37777805 132.12635803 8.15390015 C82.95635803 8.15390015 33.78635803 8.15390015 -16.87364197 8.15390015 C-16.87364197 57.65390015 -16.87364197 107.15390015 -16.87364197 158.15390015 C32.62635803 158.15390015 82.12635803 158.15390015 133.12635803 158.15390015 C133.12635803 108.65390015 133.12635803 59.15390015 133.12635803 8.15390015 C139.12635803 10.15390015 139.12635803 10.15390015 141.12635803 12.15390015 C141.37245369 14.71136665 141.37245369 14.71136665 141.36686707 18.01306152 C141.37099106 19.88512772 141.37099106 19.88512772 141.37519836 21.79501343 C141.36811961 23.18563938 141.36084998 24.57626437 141.35340881 25.96688843 C141.35284492 27.42529289 141.35316084 28.88369792 141.35429382 30.34210205 C141.35486918 34.30884867 141.34308537 38.27547509 141.32914591 42.2421937 C141.31666896 46.38486533 141.31547045 50.52753953 141.31309509 54.67022705 C141.30687137 62.51836547 141.29044853 70.36644836 141.27039611 78.2145623 C141.24389168 88.81733257 141.23307167 99.42011795 141.22139168 110.02291298 C141.20256854 126.73328365 141.16272883 143.44353714 141.12635803 160.15390015 C170.82635803 160.15390015 200.52635803 160.15390015 231.12635803 160.15390015 C231.12635803 161.47390015 231.12635803 162.79390015 231.12635803 164.15390015 C201.42635803 164.15390015 171.72635803 164.15390015 141.12635803 164.15390015 C141.12635803 164.81390015 141.12635803 165.47390015 141.12635803 166.15390015 C86.01635803 166.15390015 30.90635803 166.15390015 -25.87364197 166.15390015 C-25.87364197 114.34390015 -25.87364197 62.53390015 -25.87364197 9.15390015 C-16.85174416 4.64295124 -16.85174416 4.64295124 -12.56114197 2.96640015 C-11.74000916 2.64284546 -10.91887634 2.31929077 -10.07286072 1.9859314 C-6.52530482 0.64378325 -3.77808028 0.02408917 0 0 Z " fill="#000000" transform="translate(52.87364196777344,299.8460998535156)"/>
<path d="M0 0 C0.63744141 0.20818359 1.27488281 0.41636719 1.93164062 0.63085938 C19.18881827 6.31331402 35.51936315 15.05990696 50 26 C51.1002455 26.80210379 52.2005064 27.60418647 53.30078125 28.40625 C75.85172308 45.16177998 93.42273305 66.96859157 106 92 C106.57105469 93.12664062 107.14210938 94.25328125 107.73046875 95.4140625 C113.48818241 107.34392679 117.6287461 119.76988449 120.75 132.625 C121.04789429 133.83929688 121.04789429 133.83929688 121.35180664 135.078125 C124.40606281 148.2630938 125.37318718 161.2763072 125.3125 174.75 C125.31233887 175.48692078 125.31217773 176.22384155 125.31201172 176.98309326 C125.29448679 188.53358538 124.50460805 199.69944701 122 211 C119.36 211 116.72 211 114 211 C114.14427444 209.0415512 114.29051838 207.08324748 114.4375 205.125 C114.51871094 204.03445313 114.59992188 202.94390625 114.68359375 201.8203125 C114.85128462 199.79560046 115.02541885 197.77095673 115.24951172 195.75170898 C118.9558273 162.32449571 113.67000655 129.25901583 99 99 C98.24396484 97.38931641 98.24396484 97.38931641 97.47265625 95.74609375 C92.52484948 85.46987969 86.36542922 76.32465527 79.5 67.25 C78.96624756 66.54077393 78.43249512 65.83154785 77.88256836 65.10083008 C74.6316315 60.86752444 71.20524282 57.08155995 67.30273438 53.43652344 C66 52 66 52 66 50 C65.40606445 49.73638672 64.81212891 49.47277344 64.20019531 49.20117188 C61.90981918 47.95076679 60.55864656 46.6892042 58.796875 44.78125 C54.95320394 40.82705805 50.7476346 37.67150718 46.25 34.5 C45.45287598 33.93321533 44.65575195 33.36643066 43.83447266 32.7824707 C28.1657001 21.70297823 12.51992936 13.17618284 -5.88623047 7.63623047 C-7.80606949 7.05837178 -9.71801583 6.45445138 -11.62890625 5.84765625 C-48.89549648 -5.18658555 -97.55603986 -3.48041231 -132.29296875 15.07226562 C-132.85628906 15.37841797 -133.41960937 15.68457031 -134 16 C-134.96808594 16.4640625 -135.93617188 16.928125 -136.93359375 17.40625 C-141.10214411 19.57283414 -145.06852844 22.02956968 -149.0625 24.5 C-150.6366305 25.46889339 -152.21084689 26.43764726 -153.78515625 27.40625 C-154.51492676 27.85613281 -155.24469727 28.30601562 -155.99658203 28.76953125 C-158.32078505 30.19702128 -160.6565693 31.60431492 -163 33 C-164.32 31.35 -165.64 29.7 -167 28 C-165.67315546 24.88842431 -164.50705997 23.35146244 -161.62109375 21.59765625 C-160.95134521 21.18459229 -160.28159668 20.77152832 -159.59155273 20.34594727 C-158.88071533 19.92240967 -158.16987793 19.49887207 -157.4375 19.0625 C-156.35094116 18.40109009 -156.35094116 18.40109009 -155.24243164 17.72631836 C-147.99264894 13.33617668 -140.8302825 9.26781809 -133 6 C-132.03791626 5.59648315 -132.03791626 5.59648315 -131.05639648 5.18481445 C-119.59856932 0.43380435 -108.11923948 -3.33876494 -96 -6 C-95.26749023 -6.16516113 -94.53498047 -6.33032227 -93.78027344 -6.50048828 C-63.17382093 -13.08625588 -29.43950082 -10.01002084 0 0 Z " fill="#E92228" transform="translate(167,291)"/>
</svg>
